# xmcd
#
# Track frame offsets:
#	150
#	44921
#	61715
#
# Disc length: 1206 seconds
#
# Revision: 1
# Processed by: cddbd v1.5.2PL0 Copyright (c) Steve Scherf et al.
# Submitted via: audiograbber 1.83.01
#
DISCID=2404b403
DTITLE=Gareth Davis and Machinefabriek - Soundlines
DYEAR=2009
DGENRE=Electronic
TTITLE0=Soundlines I
TTITLE1=Intermission
TTITLE2=Soundlines II
EXTD=
EXTT0=
EXTT1=
EXTT2=
PLAYORDER=
